%TF.GenerationSoftware,KiCad,Pcbnew,7.0.8*%
%TF.CreationDate,2023-12-19T15:47:32-08:00*%
%TF.ProjectId,4-button debouncer,342d6275-7474-46f6-9e20-6465626f756e,rev?*%
%TF.SameCoordinates,Original*%
%TF.FileFunction,Soldermask,Top*%
%TF.FilePolarity,Negative*%
%FSLAX46Y46*%
G04 Gerber Fmt 4.6, Leading zero omitted, Abs format (unit mm)*
G04 Created by KiCad (PCBNEW 7.0.8) date 2023-12-19 15:47:32*
%MOMM*%
%LPD*%
G01*
G04 APERTURE LIST*
%ADD10O,3.048000X1.850000*%
%ADD11C,1.600000*%
%ADD12O,1.600000X1.600000*%
%ADD13R,1.600000X1.600000*%
%ADD14R,1.700000X1.700000*%
%ADD15O,1.700000X1.700000*%
%ADD16R,2.300000X2.300000*%
%ADD17C,2.300000*%
G04 APERTURE END LIST*
D10*
%TO.C,SW4*%
X54700000Y-81650000D03*
X67200000Y-81650000D03*
X54700000Y-86650000D03*
X67200000Y-86650000D03*
%TD*%
%TO.C,SW3*%
X54700000Y-58000000D03*
X67200000Y-58000000D03*
X54700000Y-63000000D03*
X67200000Y-63000000D03*
%TD*%
%TO.C,SW2*%
X74100000Y-58000000D03*
X86600000Y-58000000D03*
X74100000Y-63000000D03*
X86600000Y-63000000D03*
%TD*%
%TO.C,SW1*%
X74100000Y-81650000D03*
X86600000Y-81650000D03*
X74100000Y-86650000D03*
X86600000Y-86650000D03*
%TD*%
D11*
%TO.C,R8*%
X53980000Y-73350000D03*
D12*
X61600000Y-73350000D03*
%TD*%
D11*
%TO.C,R7*%
X53980000Y-97000000D03*
D12*
X61600000Y-97000000D03*
%TD*%
D11*
%TO.C,R6*%
X53980000Y-92950000D03*
D12*
X61600000Y-92950000D03*
%TD*%
D11*
%TO.C,R5*%
X53980000Y-69300000D03*
D12*
X61600000Y-69300000D03*
%TD*%
D11*
%TO.C,R4*%
X73380000Y-73350000D03*
D12*
X81000000Y-73350000D03*
%TD*%
D11*
%TO.C,R3*%
X73380000Y-69300000D03*
D12*
X81000000Y-69300000D03*
%TD*%
D11*
%TO.C,R2*%
X73380000Y-97000000D03*
D12*
X81000000Y-97000000D03*
%TD*%
D11*
%TO.C,R1*%
X73380000Y-92950000D03*
D12*
X81000000Y-92950000D03*
%TD*%
D13*
%TO.C,C5*%
X84689800Y-94200000D03*
D11*
X87189800Y-94200000D03*
%TD*%
D13*
%TO.C,C3*%
X65289800Y-70550000D03*
D11*
X67789800Y-70550000D03*
%TD*%
D13*
%TO.C,C2*%
X65289800Y-94200000D03*
D11*
X67789800Y-94200000D03*
%TD*%
D13*
%TO.C,C1*%
X84689800Y-70550000D03*
D11*
X87189800Y-70550000D03*
%TD*%
D14*
%TO.C,J2*%
X101000000Y-75160000D03*
D15*
X101000000Y-72620000D03*
X101000000Y-70080000D03*
X101000000Y-67540000D03*
X101000000Y-65000000D03*
X101000000Y-62460000D03*
%TD*%
D14*
%TO.C,J3*%
X94000000Y-75540000D03*
D15*
X94000000Y-73000000D03*
X94000000Y-70460000D03*
X94000000Y-67920000D03*
X94000000Y-65380000D03*
X94000000Y-62840000D03*
%TD*%
D16*
%TO.C,J1*%
X95500000Y-55000000D03*
D17*
X100500000Y-55000000D03*
%TD*%
D13*
%TO.C,U2*%
X93190000Y-82000000D03*
D11*
X93190000Y-84540000D03*
X93190000Y-87080000D03*
X93190000Y-89620000D03*
X93190000Y-92160000D03*
X93190000Y-94700000D03*
X93190000Y-97240000D03*
X100810000Y-97240000D03*
X100810000Y-94700000D03*
X100810000Y-92160000D03*
X100810000Y-89620000D03*
X100810000Y-87080000D03*
X100810000Y-84540000D03*
X100810000Y-82000000D03*
%TD*%
M02*
