%TF.GenerationSoftware,KiCad,Pcbnew,7.0.8*%
%TF.CreationDate,2023-12-19T15:47:31-08:00*%
%TF.ProjectId,4-button debouncer,342d6275-7474-46f6-9e20-6465626f756e,rev?*%
%TF.SameCoordinates,Original*%
%TF.FileFunction,Copper,L1,Top*%
%TF.FilePolarity,Positive*%
%FSLAX46Y46*%
G04 Gerber Fmt 4.6, Leading zero omitted, Abs format (unit mm)*
G04 Created by KiCad (PCBNEW 7.0.8) date 2023-12-19 15:47:31*
%MOMM*%
%LPD*%
G01*
G04 APERTURE LIST*
%TA.AperFunction,ComponentPad*%
%ADD10O,3.048000X1.850000*%
%TD*%
%TA.AperFunction,ComponentPad*%
%ADD11C,1.600000*%
%TD*%
%TA.AperFunction,ComponentPad*%
%ADD12O,1.600000X1.600000*%
%TD*%
%TA.AperFunction,ComponentPad*%
%ADD13R,1.600000X1.600000*%
%TD*%
%TA.AperFunction,ComponentPad*%
%ADD14R,1.700000X1.700000*%
%TD*%
%TA.AperFunction,ComponentPad*%
%ADD15O,1.700000X1.700000*%
%TD*%
%TA.AperFunction,ComponentPad*%
%ADD16R,2.300000X2.300000*%
%TD*%
%TA.AperFunction,ComponentPad*%
%ADD17C,2.300000*%
%TD*%
%TA.AperFunction,Conductor*%
%ADD18C,0.250000*%
%TD*%
G04 APERTURE END LIST*
D10*
%TO.P,SW4,1,1*%
%TO.N,+5V*%
X54700000Y-81650000D03*
X67200000Y-81650000D03*
%TO.P,SW4,2,2*%
%TO.N,Net-(R6-Pad1)*%
X54700000Y-86650000D03*
X67200000Y-86650000D03*
%TD*%
%TO.P,SW3,1,1*%
%TO.N,+5V*%
X54700000Y-58000000D03*
X67200000Y-58000000D03*
%TO.P,SW3,2,2*%
%TO.N,Net-(R5-Pad1)*%
X54700000Y-63000000D03*
X67200000Y-63000000D03*
%TD*%
%TO.P,SW2,1,1*%
%TO.N,+5V*%
X74100000Y-58000000D03*
X86600000Y-58000000D03*
%TO.P,SW2,2,2*%
%TO.N,Net-(R3-Pad1)*%
X74100000Y-63000000D03*
X86600000Y-63000000D03*
%TD*%
%TO.P,SW1,1,1*%
%TO.N,GND*%
X74100000Y-81650000D03*
X86600000Y-81650000D03*
%TO.P,SW1,2,2*%
%TO.N,Net-(R1-Pad1)*%
X74100000Y-86650000D03*
X86600000Y-86650000D03*
%TD*%
D11*
%TO.P,R8,1*%
%TO.N,GND*%
X53980000Y-73350000D03*
D12*
%TO.P,R8,2*%
%TO.N,/SW3*%
X61600000Y-73350000D03*
%TD*%
D11*
%TO.P,R7,1*%
%TO.N,GND*%
X53980000Y-97000000D03*
D12*
%TO.P,R7,2*%
%TO.N,/SW1*%
X61600000Y-97000000D03*
%TD*%
D11*
%TO.P,R6,1*%
%TO.N,Net-(R6-Pad1)*%
X53980000Y-92950000D03*
D12*
%TO.P,R6,2*%
%TO.N,/SW1*%
X61600000Y-92950000D03*
%TD*%
D11*
%TO.P,R5,1*%
%TO.N,Net-(R5-Pad1)*%
X53980000Y-69300000D03*
D12*
%TO.P,R5,2*%
%TO.N,/SW3*%
X61600000Y-69300000D03*
%TD*%
D11*
%TO.P,R4,1*%
%TO.N,GND*%
X73380000Y-73350000D03*
D12*
%TO.P,R4,2*%
%TO.N,/SW2*%
X81000000Y-73350000D03*
%TD*%
D11*
%TO.P,R3,1*%
%TO.N,Net-(R3-Pad1)*%
X73380000Y-69300000D03*
D12*
%TO.P,R3,2*%
%TO.N,/SW2*%
X81000000Y-69300000D03*
%TD*%
D11*
%TO.P,R2,1*%
%TO.N,+5V*%
X73380000Y-97000000D03*
D12*
%TO.P,R2,2*%
%TO.N,/SW4*%
X81000000Y-97000000D03*
%TD*%
D11*
%TO.P,R1,1*%
%TO.N,Net-(R1-Pad1)*%
X73380000Y-92950000D03*
D12*
%TO.P,R1,2*%
%TO.N,/SW4*%
X81000000Y-92950000D03*
%TD*%
D13*
%TO.P,C5,1*%
%TO.N,/SW4*%
X84689800Y-94200000D03*
D11*
%TO.P,C5,2*%
%TO.N,GND*%
X87189800Y-94200000D03*
%TD*%
D13*
%TO.P,C3,1*%
%TO.N,/SW3*%
X65289800Y-70550000D03*
D11*
%TO.P,C3,2*%
%TO.N,GND*%
X67789800Y-70550000D03*
%TD*%
D13*
%TO.P,C2,1*%
%TO.N,/SW1*%
X65289800Y-94200000D03*
D11*
%TO.P,C2,2*%
%TO.N,GND*%
X67789800Y-94200000D03*
%TD*%
D13*
%TO.P,C1,1*%
%TO.N,/SW2*%
X84689800Y-70550000D03*
D11*
%TO.P,C1,2*%
%TO.N,GND*%
X87189800Y-70550000D03*
%TD*%
D14*
%TO.P,J2,1,Pin_1*%
%TO.N,Net-(J2-Pin_1)*%
X101000000Y-75160000D03*
D15*
%TO.P,J2,2,Pin_2*%
%TO.N,Net-(J2-Pin_2)*%
X101000000Y-72620000D03*
%TO.P,J2,3,Pin_3*%
%TO.N,Net-(J2-Pin_3)*%
X101000000Y-70080000D03*
%TO.P,J2,4,Pin_4*%
%TO.N,Net-(J2-Pin_4)*%
X101000000Y-67540000D03*
%TO.P,J2,5,Pin_5*%
%TO.N,+5V*%
X101000000Y-65000000D03*
%TO.P,J2,6,Pin_6*%
%TO.N,GND*%
X101000000Y-62460000D03*
%TD*%
D14*
%TO.P,J3,1,Pin_1*%
%TO.N,/SW1*%
X94000000Y-75540000D03*
D15*
%TO.P,J3,2,Pin_2*%
%TO.N,/SW2*%
X94000000Y-73000000D03*
%TO.P,J3,3,Pin_3*%
%TO.N,/SW3*%
X94000000Y-70460000D03*
%TO.P,J3,4,Pin_4*%
%TO.N,/SW4*%
X94000000Y-67920000D03*
%TO.P,J3,5,Pin_5*%
%TO.N,+5V*%
X94000000Y-65380000D03*
%TO.P,J3,6,Pin_6*%
%TO.N,GND*%
X94000000Y-62840000D03*
%TD*%
D16*
%TO.P,J1,1*%
%TO.N,+5V*%
X95500000Y-55000000D03*
D17*
%TO.P,J1,2*%
%TO.N,GND*%
X100500000Y-55000000D03*
%TD*%
D13*
%TO.P,U2,1,1A*%
%TO.N,/SW1*%
X93190000Y-82000000D03*
D11*
%TO.P,U2,2,1Y*%
%TO.N,Net-(J2-Pin_1)*%
X93190000Y-84540000D03*
%TO.P,U2,3,2A*%
%TO.N,/SW2*%
X93190000Y-87080000D03*
%TO.P,U2,4,2Y*%
%TO.N,Net-(J2-Pin_2)*%
X93190000Y-89620000D03*
%TO.P,U2,5,3A*%
%TO.N,/SW3*%
X93190000Y-92160000D03*
%TO.P,U2,6,3Y*%
%TO.N,Net-(J2-Pin_3)*%
X93190000Y-94700000D03*
%TO.P,U2,7,GND*%
%TO.N,GND*%
X93190000Y-97240000D03*
%TO.P,U2,8,4Y*%
%TO.N,Net-(J2-Pin_4)*%
X100810000Y-97240000D03*
%TO.P,U2,9,4A*%
%TO.N,/SW4*%
X100810000Y-94700000D03*
%TO.P,U2,10,5Y*%
%TO.N,unconnected-(U2-5Y-Pad10)*%
X100810000Y-92160000D03*
%TO.P,U2,11,5A*%
%TO.N,GND*%
X100810000Y-89620000D03*
%TO.P,U2,12,6Y*%
%TO.N,unconnected-(U2-6Y-Pad12)*%
X100810000Y-87080000D03*
%TO.P,U2,13,6A*%
%TO.N,GND*%
X100810000Y-84540000D03*
%TO.P,U2,14,VCC*%
%TO.N,+5V*%
X100810000Y-82000000D03*
%TD*%
D18*
%TO.N,Net-(J2-Pin_2)*%
X101000000Y-72620000D02*
X101000000Y-73796900D01*
X95059500Y-87750500D02*
X93190000Y-89620000D01*
X95059500Y-83768800D02*
X95059500Y-87750500D01*
X102186100Y-76642200D02*
X95059500Y-83768800D01*
X102186100Y-74173900D02*
X102186100Y-76642200D01*
X101809100Y-73796900D02*
X102186100Y-74173900D01*
X101000000Y-73796900D02*
X101809100Y-73796900D01*
%TO.N,Net-(R6-Pad1)*%
X52849100Y-91819100D02*
X52849100Y-86650000D01*
X53980000Y-92950000D02*
X52849100Y-91819100D01*
X54700000Y-86650000D02*
X52849100Y-86650000D01*
X67200000Y-86650000D02*
X54700000Y-86650000D01*
%TO.N,Net-(R5-Pad1)*%
X67200000Y-63000000D02*
X65349100Y-63000000D01*
X53980000Y-63720000D02*
X54700000Y-63000000D01*
X53980000Y-69300000D02*
X53980000Y-63720000D01*
X54700000Y-63000000D02*
X65349100Y-63000000D01*
%TO.N,Net-(R3-Pad1)*%
X72249100Y-68169100D02*
X72249100Y-63000000D01*
X73380000Y-69300000D02*
X72249100Y-68169100D01*
X74100000Y-63000000D02*
X72249100Y-63000000D01*
X86600000Y-63000000D02*
X74100000Y-63000000D01*
%TO.N,Net-(R1-Pad1)*%
X72249100Y-91819100D02*
X72249100Y-86650000D01*
X73380000Y-92950000D02*
X72249100Y-91819100D01*
X74100000Y-86650000D02*
X72249100Y-86650000D01*
X86600000Y-86650000D02*
X74100000Y-86650000D01*
%TO.N,Net-(J2-Pin_4)*%
X101000000Y-67540000D02*
X101000000Y-68716900D01*
X101365800Y-68716900D02*
X101000000Y-68716900D01*
X103548200Y-70899300D02*
X101365800Y-68716900D01*
X103548200Y-94501800D02*
X103548200Y-70899300D01*
X100810000Y-97240000D02*
X103548200Y-94501800D01*
%TO.N,Net-(J2-Pin_1)*%
X101000000Y-76730000D02*
X101000000Y-75160000D01*
X93190000Y-84540000D02*
X101000000Y-76730000D01*
%TO.N,Net-(J2-Pin_3)*%
X103093100Y-72173100D02*
X101000000Y-70080000D01*
X103093100Y-81317500D02*
X103093100Y-72173100D01*
X101140600Y-83270000D02*
X103093100Y-81317500D01*
X100481300Y-83270000D02*
X101140600Y-83270000D01*
X98863200Y-84888100D02*
X100481300Y-83270000D01*
X98863200Y-89026800D02*
X98863200Y-84888100D01*
X93190000Y-94700000D02*
X98863200Y-89026800D01*
%TO.N,/SW4*%
X81000000Y-92950000D02*
X82126900Y-92950000D01*
X81000000Y-97000000D02*
X82126900Y-97000000D01*
X83376900Y-95750000D02*
X82126900Y-97000000D01*
X83376900Y-94200000D02*
X83376900Y-95750000D01*
X84689800Y-94200000D02*
X83376900Y-94200000D01*
X83376900Y-94200000D02*
X82126900Y-92950000D01*
X84689800Y-94200000D02*
X85816700Y-94200000D01*
X94000000Y-67920000D02*
X95176900Y-67920000D01*
X99673500Y-97703000D02*
X99673500Y-95836500D01*
X100366500Y-98396000D02*
X99673500Y-97703000D01*
X101257700Y-98396000D02*
X100366500Y-98396000D01*
X104039400Y-95614300D02*
X101257700Y-98396000D01*
X104039400Y-68867600D02*
X104039400Y-95614300D01*
X101518400Y-66346600D02*
X104039400Y-68867600D01*
X96750300Y-66346600D02*
X101518400Y-66346600D01*
X95176900Y-67920000D02*
X96750300Y-66346600D01*
X100810000Y-94700000D02*
X99673500Y-95836500D01*
X85816700Y-94481700D02*
X85816700Y-94200000D01*
X87171500Y-95836500D02*
X85816700Y-94481700D01*
X99673500Y-95836500D02*
X87171500Y-95836500D01*
%TO.N,/SW3*%
X61600000Y-69300000D02*
X62726900Y-69300000D01*
X61600000Y-73350000D02*
X62726900Y-73350000D01*
X63976900Y-72100000D02*
X62726900Y-73350000D01*
X63976900Y-70550000D02*
X63976900Y-72100000D01*
X63976900Y-70550000D02*
X62726900Y-69300000D01*
X65289800Y-70550000D02*
X63976900Y-70550000D01*
X65289800Y-70550000D02*
X66416700Y-70550000D01*
X94000000Y-70460000D02*
X92823100Y-70460000D01*
X66416700Y-70831600D02*
X66416700Y-70550000D01*
X67265600Y-71680500D02*
X66416700Y-70831600D01*
X77003100Y-71680500D02*
X67265600Y-71680500D01*
X77003100Y-74681600D02*
X77003100Y-71680500D01*
X91115900Y-88794400D02*
X77003100Y-74681600D01*
X91115900Y-90085900D02*
X91115900Y-88794400D01*
X93190000Y-92160000D02*
X91115900Y-90085900D01*
X90482200Y-68119100D02*
X92823100Y-70460000D01*
X80564500Y-68119100D02*
X90482200Y-68119100D01*
X77003100Y-71680500D02*
X80564500Y-68119100D01*
%TO.N,/SW2*%
X81000000Y-69300000D02*
X82126900Y-69300000D01*
X81000000Y-73350000D02*
X82126900Y-73350000D01*
X83376900Y-72100000D02*
X82126900Y-73350000D01*
X83376900Y-70550000D02*
X83376900Y-72100000D01*
X84689800Y-70550000D02*
X83376900Y-70550000D01*
X83376900Y-70550000D02*
X82126900Y-69300000D01*
X94000000Y-73000000D02*
X94000000Y-74176900D01*
X84689800Y-70550000D02*
X85816700Y-70550000D01*
X85816700Y-70831700D02*
X85816700Y-70550000D01*
X90777900Y-75792900D02*
X85816700Y-70831700D01*
X91567800Y-75792900D02*
X90777900Y-75792900D01*
X91567800Y-85457800D02*
X91567800Y-75792900D01*
X93190000Y-87080000D02*
X91567800Y-85457800D01*
X93183800Y-74176900D02*
X94000000Y-74176900D01*
X91567800Y-75792900D02*
X93183800Y-74176900D01*
%TO.N,/SW1*%
X65289800Y-94200000D02*
X65289800Y-93918200D01*
X61600000Y-97000000D02*
X62163500Y-97000000D01*
X93190000Y-82000000D02*
X93190000Y-81436500D01*
X93190000Y-77526900D02*
X94000000Y-76716900D01*
X93190000Y-81436500D02*
X93190000Y-77526900D01*
X94000000Y-75540000D02*
X94000000Y-76716900D01*
X93190000Y-82000000D02*
X93190000Y-83126900D01*
X61600000Y-92950000D02*
X61600000Y-94076900D01*
X63343300Y-95820200D02*
X61600000Y-94076900D01*
X62163500Y-97000000D02*
X63343300Y-95820200D01*
X65245300Y-93918200D02*
X65289800Y-93918200D01*
X63343300Y-95820200D02*
X65245300Y-93918200D01*
X92910300Y-83126900D02*
X93190000Y-83126900D01*
X92063100Y-83974100D02*
X92910300Y-83126900D01*
X92063100Y-85050900D02*
X92063100Y-83974100D01*
X92679100Y-85666900D02*
X92063100Y-85050900D01*
X93446200Y-85666900D02*
X92679100Y-85666900D01*
X94389200Y-86609900D02*
X93446200Y-85666900D01*
X94389200Y-87526000D02*
X94389200Y-86609900D01*
X93708300Y-88206900D02*
X94389200Y-87526000D01*
X92992800Y-88206900D02*
X93708300Y-88206900D01*
X92062000Y-89137700D02*
X92992800Y-88206900D01*
X92062000Y-90154400D02*
X92062000Y-89137700D01*
X92654500Y-90746900D02*
X92062000Y-90154400D01*
X93414000Y-90746900D02*
X92654500Y-90746900D01*
X94362700Y-91695600D02*
X93414000Y-90746900D01*
X94362700Y-92608000D02*
X94362700Y-91695600D01*
X93646400Y-93324300D02*
X94362700Y-92608000D01*
X91814500Y-93324300D02*
X93646400Y-93324300D01*
X90293000Y-91802800D02*
X91814500Y-93324300D01*
X80461300Y-91802800D02*
X90293000Y-91802800D01*
X74132300Y-98131800D02*
X80461300Y-91802800D01*
X69503400Y-98131800D02*
X74132300Y-98131800D01*
X65289800Y-93918200D02*
X69503400Y-98131800D01*
%TO.N,+5V*%
X94000000Y-65380000D02*
X94000000Y-66556900D01*
X54700000Y-81650000D02*
X67200000Y-81650000D01*
X69050900Y-92670900D02*
X73380000Y-97000000D01*
X69050900Y-81650000D02*
X69050900Y-92670900D01*
X67200000Y-81650000D02*
X69050900Y-81650000D01*
X86600000Y-58000000D02*
X74100000Y-58000000D01*
X74100000Y-58000000D02*
X67200000Y-58000000D01*
X94000000Y-65380000D02*
X94000000Y-64791500D01*
X101000000Y-65000000D02*
X99823100Y-65000000D01*
X54700000Y-81650000D02*
X52849100Y-81650000D01*
X67200000Y-58000000D02*
X54700000Y-58000000D01*
X52849100Y-58000000D02*
X52849100Y-81650000D01*
X54700000Y-58000000D02*
X52849100Y-58000000D01*
X95500000Y-55000000D02*
X95500000Y-56476900D01*
X94000000Y-64791500D02*
X95500000Y-64791500D01*
X99614600Y-64791500D02*
X99823100Y-65000000D01*
X95500000Y-64791500D02*
X99614600Y-64791500D01*
X86600000Y-58000000D02*
X88450900Y-58000000D01*
X95500000Y-58000000D02*
X88450900Y-58000000D01*
X95500000Y-64791500D02*
X95500000Y-58000000D01*
X95500000Y-58000000D02*
X95500000Y-56476900D01*
X102638000Y-80172000D02*
X100810000Y-82000000D01*
X102638000Y-72529000D02*
X102638000Y-80172000D01*
X101400900Y-71291900D02*
X102638000Y-72529000D01*
X96732100Y-71291900D02*
X101400900Y-71291900D01*
X94630200Y-69190000D02*
X96732100Y-71291900D01*
X93552900Y-69190000D02*
X94630200Y-69190000D01*
X92807400Y-68444500D02*
X93552900Y-69190000D01*
X92807400Y-67383700D02*
X92807400Y-68444500D01*
X93634200Y-66556900D02*
X92807400Y-67383700D01*
X94000000Y-66556900D02*
X93634200Y-66556900D01*
%TD*%
M02*
