M48
; DRILL file {KiCad 7.0.8} date Tue Dec 19 15:47:34 2023
; FORMAT={-:-/ absolute / inch / decimal}
; #@! TF.CreationDate,2023-12-19T15:47:34-08:00
; #@! TF.GenerationSoftware,Kicad,Pcbnew,7.0.8
; #@! TF.FileFunction,Plated,1,2,PTH
FMAT,2
INCH
; #@! TA.AperFunction,Plated,PTH,ComponentDrill
T1C0.0315
; #@! TA.AperFunction,Plated,PTH,ComponentDrill
T2C0.0394
; #@! TA.AperFunction,Plated,PTH,ComponentDrill
T3C0.0512
%
G90
G05
T1
X2.1252Y-2.7283
X2.1252Y-2.8878
X2.1252Y-3.6594
X2.1252Y-3.8189
X2.4252Y-2.7283
X2.4252Y-2.8878
X2.4252Y-3.6594
X2.4252Y-3.8189
X2.5705Y-2.7776
X2.5705Y-3.7087
X2.6689Y-2.7776
X2.6689Y-3.7087
X2.889Y-2.7283
X2.889Y-2.8878
X2.889Y-3.6594
X2.889Y-3.8189
X3.189Y-2.7283
X3.189Y-2.8878
X3.189Y-3.6594
X3.189Y-3.8189
X3.3342Y-2.7776
X3.3342Y-3.7087
X3.4327Y-2.7776
X3.4327Y-3.7087
T2
X3.6689Y-3.2283
X3.6689Y-3.3283
X3.6689Y-3.4283
X3.6689Y-3.5283
X3.6689Y-3.6283
X3.6689Y-3.7283
X3.6689Y-3.8283
X3.7008Y-2.474
X3.7008Y-2.574
X3.7008Y-2.674
X3.7008Y-2.774
X3.7008Y-2.874
X3.7008Y-2.974
X3.9689Y-3.2283
X3.9689Y-3.3283
X3.9689Y-3.4283
X3.9689Y-3.5283
X3.9689Y-3.6283
X3.9689Y-3.7283
X3.9689Y-3.8283
X3.9764Y-2.4591
X3.9764Y-2.5591
X3.9764Y-2.6591
X3.9764Y-2.7591
X3.9764Y-2.8591
X3.9764Y-2.9591
T3
X2.1535Y-2.2835
X2.1535Y-2.4803
X2.1535Y-3.2146
X2.1535Y-3.4114
X2.6457Y-2.2835
X2.6457Y-2.4803
X2.6457Y-3.2146
X2.6457Y-3.4114
X2.9173Y-2.2835
X2.9173Y-2.4803
X2.9173Y-3.2146
X2.9173Y-3.4114
X3.4094Y-2.2835
X3.4094Y-2.4803
X3.4094Y-3.2146
X3.4094Y-3.4114
X3.7598Y-2.1654
X3.9567Y-2.1654
T0
M30
