%TF.GenerationSoftware,KiCad,Pcbnew,7.0.8*%
%TF.CreationDate,2023-12-19T15:47:32-08:00*%
%TF.ProjectId,4-button debouncer,342d6275-7474-46f6-9e20-6465626f756e,rev?*%
%TF.SameCoordinates,Original*%
%TF.FileFunction,Legend,Top*%
%TF.FilePolarity,Positive*%
%FSLAX46Y46*%
G04 Gerber Fmt 4.6, Leading zero omitted, Abs format (unit mm)*
G04 Created by KiCad (PCBNEW 7.0.8) date 2023-12-19 15:47:32*
%MOMM*%
%LPD*%
G01*
G04 APERTURE LIST*
%ADD10C,0.150000*%
%ADD11C,0.120000*%
%ADD12C,0.100000*%
G04 APERTURE END LIST*
D10*
X59446667Y-77397200D02*
X59589524Y-77444819D01*
X59589524Y-77444819D02*
X59827619Y-77444819D01*
X59827619Y-77444819D02*
X59922857Y-77397200D01*
X59922857Y-77397200D02*
X59970476Y-77349580D01*
X59970476Y-77349580D02*
X60018095Y-77254342D01*
X60018095Y-77254342D02*
X60018095Y-77159104D01*
X60018095Y-77159104D02*
X59970476Y-77063866D01*
X59970476Y-77063866D02*
X59922857Y-77016247D01*
X59922857Y-77016247D02*
X59827619Y-76968628D01*
X59827619Y-76968628D02*
X59637143Y-76921009D01*
X59637143Y-76921009D02*
X59541905Y-76873390D01*
X59541905Y-76873390D02*
X59494286Y-76825771D01*
X59494286Y-76825771D02*
X59446667Y-76730533D01*
X59446667Y-76730533D02*
X59446667Y-76635295D01*
X59446667Y-76635295D02*
X59494286Y-76540057D01*
X59494286Y-76540057D02*
X59541905Y-76492438D01*
X59541905Y-76492438D02*
X59637143Y-76444819D01*
X59637143Y-76444819D02*
X59875238Y-76444819D01*
X59875238Y-76444819D02*
X60018095Y-76492438D01*
X60351429Y-76444819D02*
X60589524Y-77444819D01*
X60589524Y-77444819D02*
X60780000Y-76730533D01*
X60780000Y-76730533D02*
X60970476Y-77444819D01*
X60970476Y-77444819D02*
X61208572Y-76444819D01*
X62018095Y-76778152D02*
X62018095Y-77444819D01*
X61780000Y-76397200D02*
X61541905Y-77111485D01*
X61541905Y-77111485D02*
X62160952Y-77111485D01*
X59446667Y-53747200D02*
X59589524Y-53794819D01*
X59589524Y-53794819D02*
X59827619Y-53794819D01*
X59827619Y-53794819D02*
X59922857Y-53747200D01*
X59922857Y-53747200D02*
X59970476Y-53699580D01*
X59970476Y-53699580D02*
X60018095Y-53604342D01*
X60018095Y-53604342D02*
X60018095Y-53509104D01*
X60018095Y-53509104D02*
X59970476Y-53413866D01*
X59970476Y-53413866D02*
X59922857Y-53366247D01*
X59922857Y-53366247D02*
X59827619Y-53318628D01*
X59827619Y-53318628D02*
X59637143Y-53271009D01*
X59637143Y-53271009D02*
X59541905Y-53223390D01*
X59541905Y-53223390D02*
X59494286Y-53175771D01*
X59494286Y-53175771D02*
X59446667Y-53080533D01*
X59446667Y-53080533D02*
X59446667Y-52985295D01*
X59446667Y-52985295D02*
X59494286Y-52890057D01*
X59494286Y-52890057D02*
X59541905Y-52842438D01*
X59541905Y-52842438D02*
X59637143Y-52794819D01*
X59637143Y-52794819D02*
X59875238Y-52794819D01*
X59875238Y-52794819D02*
X60018095Y-52842438D01*
X60351429Y-52794819D02*
X60589524Y-53794819D01*
X60589524Y-53794819D02*
X60780000Y-53080533D01*
X60780000Y-53080533D02*
X60970476Y-53794819D01*
X60970476Y-53794819D02*
X61208572Y-52794819D01*
X61494286Y-52794819D02*
X62113333Y-52794819D01*
X62113333Y-52794819D02*
X61780000Y-53175771D01*
X61780000Y-53175771D02*
X61922857Y-53175771D01*
X61922857Y-53175771D02*
X62018095Y-53223390D01*
X62018095Y-53223390D02*
X62065714Y-53271009D01*
X62065714Y-53271009D02*
X62113333Y-53366247D01*
X62113333Y-53366247D02*
X62113333Y-53604342D01*
X62113333Y-53604342D02*
X62065714Y-53699580D01*
X62065714Y-53699580D02*
X62018095Y-53747200D01*
X62018095Y-53747200D02*
X61922857Y-53794819D01*
X61922857Y-53794819D02*
X61637143Y-53794819D01*
X61637143Y-53794819D02*
X61541905Y-53747200D01*
X61541905Y-53747200D02*
X61494286Y-53699580D01*
X78846667Y-53747200D02*
X78989524Y-53794819D01*
X78989524Y-53794819D02*
X79227619Y-53794819D01*
X79227619Y-53794819D02*
X79322857Y-53747200D01*
X79322857Y-53747200D02*
X79370476Y-53699580D01*
X79370476Y-53699580D02*
X79418095Y-53604342D01*
X79418095Y-53604342D02*
X79418095Y-53509104D01*
X79418095Y-53509104D02*
X79370476Y-53413866D01*
X79370476Y-53413866D02*
X79322857Y-53366247D01*
X79322857Y-53366247D02*
X79227619Y-53318628D01*
X79227619Y-53318628D02*
X79037143Y-53271009D01*
X79037143Y-53271009D02*
X78941905Y-53223390D01*
X78941905Y-53223390D02*
X78894286Y-53175771D01*
X78894286Y-53175771D02*
X78846667Y-53080533D01*
X78846667Y-53080533D02*
X78846667Y-52985295D01*
X78846667Y-52985295D02*
X78894286Y-52890057D01*
X78894286Y-52890057D02*
X78941905Y-52842438D01*
X78941905Y-52842438D02*
X79037143Y-52794819D01*
X79037143Y-52794819D02*
X79275238Y-52794819D01*
X79275238Y-52794819D02*
X79418095Y-52842438D01*
X79751429Y-52794819D02*
X79989524Y-53794819D01*
X79989524Y-53794819D02*
X80180000Y-53080533D01*
X80180000Y-53080533D02*
X80370476Y-53794819D01*
X80370476Y-53794819D02*
X80608572Y-52794819D01*
X80941905Y-52890057D02*
X80989524Y-52842438D01*
X80989524Y-52842438D02*
X81084762Y-52794819D01*
X81084762Y-52794819D02*
X81322857Y-52794819D01*
X81322857Y-52794819D02*
X81418095Y-52842438D01*
X81418095Y-52842438D02*
X81465714Y-52890057D01*
X81465714Y-52890057D02*
X81513333Y-52985295D01*
X81513333Y-52985295D02*
X81513333Y-53080533D01*
X81513333Y-53080533D02*
X81465714Y-53223390D01*
X81465714Y-53223390D02*
X80894286Y-53794819D01*
X80894286Y-53794819D02*
X81513333Y-53794819D01*
X78846667Y-77397200D02*
X78989524Y-77444819D01*
X78989524Y-77444819D02*
X79227619Y-77444819D01*
X79227619Y-77444819D02*
X79322857Y-77397200D01*
X79322857Y-77397200D02*
X79370476Y-77349580D01*
X79370476Y-77349580D02*
X79418095Y-77254342D01*
X79418095Y-77254342D02*
X79418095Y-77159104D01*
X79418095Y-77159104D02*
X79370476Y-77063866D01*
X79370476Y-77063866D02*
X79322857Y-77016247D01*
X79322857Y-77016247D02*
X79227619Y-76968628D01*
X79227619Y-76968628D02*
X79037143Y-76921009D01*
X79037143Y-76921009D02*
X78941905Y-76873390D01*
X78941905Y-76873390D02*
X78894286Y-76825771D01*
X78894286Y-76825771D02*
X78846667Y-76730533D01*
X78846667Y-76730533D02*
X78846667Y-76635295D01*
X78846667Y-76635295D02*
X78894286Y-76540057D01*
X78894286Y-76540057D02*
X78941905Y-76492438D01*
X78941905Y-76492438D02*
X79037143Y-76444819D01*
X79037143Y-76444819D02*
X79275238Y-76444819D01*
X79275238Y-76444819D02*
X79418095Y-76492438D01*
X79751429Y-76444819D02*
X79989524Y-77444819D01*
X79989524Y-77444819D02*
X80180000Y-76730533D01*
X80180000Y-76730533D02*
X80370476Y-77444819D01*
X80370476Y-77444819D02*
X80608572Y-76444819D01*
X81513333Y-77444819D02*
X80941905Y-77444819D01*
X81227619Y-77444819D02*
X81227619Y-76444819D01*
X81227619Y-76444819D02*
X81132381Y-76587676D01*
X81132381Y-76587676D02*
X81037143Y-76682914D01*
X81037143Y-76682914D02*
X80941905Y-76730533D01*
X57623333Y-71434819D02*
X57290000Y-70958628D01*
X57051905Y-71434819D02*
X57051905Y-70434819D01*
X57051905Y-70434819D02*
X57432857Y-70434819D01*
X57432857Y-70434819D02*
X57528095Y-70482438D01*
X57528095Y-70482438D02*
X57575714Y-70530057D01*
X57575714Y-70530057D02*
X57623333Y-70625295D01*
X57623333Y-70625295D02*
X57623333Y-70768152D01*
X57623333Y-70768152D02*
X57575714Y-70863390D01*
X57575714Y-70863390D02*
X57528095Y-70911009D01*
X57528095Y-70911009D02*
X57432857Y-70958628D01*
X57432857Y-70958628D02*
X57051905Y-70958628D01*
X58194762Y-70863390D02*
X58099524Y-70815771D01*
X58099524Y-70815771D02*
X58051905Y-70768152D01*
X58051905Y-70768152D02*
X58004286Y-70672914D01*
X58004286Y-70672914D02*
X58004286Y-70625295D01*
X58004286Y-70625295D02*
X58051905Y-70530057D01*
X58051905Y-70530057D02*
X58099524Y-70482438D01*
X58099524Y-70482438D02*
X58194762Y-70434819D01*
X58194762Y-70434819D02*
X58385238Y-70434819D01*
X58385238Y-70434819D02*
X58480476Y-70482438D01*
X58480476Y-70482438D02*
X58528095Y-70530057D01*
X58528095Y-70530057D02*
X58575714Y-70625295D01*
X58575714Y-70625295D02*
X58575714Y-70672914D01*
X58575714Y-70672914D02*
X58528095Y-70768152D01*
X58528095Y-70768152D02*
X58480476Y-70815771D01*
X58480476Y-70815771D02*
X58385238Y-70863390D01*
X58385238Y-70863390D02*
X58194762Y-70863390D01*
X58194762Y-70863390D02*
X58099524Y-70911009D01*
X58099524Y-70911009D02*
X58051905Y-70958628D01*
X58051905Y-70958628D02*
X58004286Y-71053866D01*
X58004286Y-71053866D02*
X58004286Y-71244342D01*
X58004286Y-71244342D02*
X58051905Y-71339580D01*
X58051905Y-71339580D02*
X58099524Y-71387200D01*
X58099524Y-71387200D02*
X58194762Y-71434819D01*
X58194762Y-71434819D02*
X58385238Y-71434819D01*
X58385238Y-71434819D02*
X58480476Y-71387200D01*
X58480476Y-71387200D02*
X58528095Y-71339580D01*
X58528095Y-71339580D02*
X58575714Y-71244342D01*
X58575714Y-71244342D02*
X58575714Y-71053866D01*
X58575714Y-71053866D02*
X58528095Y-70958628D01*
X58528095Y-70958628D02*
X58480476Y-70911009D01*
X58480476Y-70911009D02*
X58385238Y-70863390D01*
X57623333Y-95084819D02*
X57290000Y-94608628D01*
X57051905Y-95084819D02*
X57051905Y-94084819D01*
X57051905Y-94084819D02*
X57432857Y-94084819D01*
X57432857Y-94084819D02*
X57528095Y-94132438D01*
X57528095Y-94132438D02*
X57575714Y-94180057D01*
X57575714Y-94180057D02*
X57623333Y-94275295D01*
X57623333Y-94275295D02*
X57623333Y-94418152D01*
X57623333Y-94418152D02*
X57575714Y-94513390D01*
X57575714Y-94513390D02*
X57528095Y-94561009D01*
X57528095Y-94561009D02*
X57432857Y-94608628D01*
X57432857Y-94608628D02*
X57051905Y-94608628D01*
X57956667Y-94084819D02*
X58623333Y-94084819D01*
X58623333Y-94084819D02*
X58194762Y-95084819D01*
X57623333Y-91034819D02*
X57290000Y-90558628D01*
X57051905Y-91034819D02*
X57051905Y-90034819D01*
X57051905Y-90034819D02*
X57432857Y-90034819D01*
X57432857Y-90034819D02*
X57528095Y-90082438D01*
X57528095Y-90082438D02*
X57575714Y-90130057D01*
X57575714Y-90130057D02*
X57623333Y-90225295D01*
X57623333Y-90225295D02*
X57623333Y-90368152D01*
X57623333Y-90368152D02*
X57575714Y-90463390D01*
X57575714Y-90463390D02*
X57528095Y-90511009D01*
X57528095Y-90511009D02*
X57432857Y-90558628D01*
X57432857Y-90558628D02*
X57051905Y-90558628D01*
X58480476Y-90034819D02*
X58290000Y-90034819D01*
X58290000Y-90034819D02*
X58194762Y-90082438D01*
X58194762Y-90082438D02*
X58147143Y-90130057D01*
X58147143Y-90130057D02*
X58051905Y-90272914D01*
X58051905Y-90272914D02*
X58004286Y-90463390D01*
X58004286Y-90463390D02*
X58004286Y-90844342D01*
X58004286Y-90844342D02*
X58051905Y-90939580D01*
X58051905Y-90939580D02*
X58099524Y-90987200D01*
X58099524Y-90987200D02*
X58194762Y-91034819D01*
X58194762Y-91034819D02*
X58385238Y-91034819D01*
X58385238Y-91034819D02*
X58480476Y-90987200D01*
X58480476Y-90987200D02*
X58528095Y-90939580D01*
X58528095Y-90939580D02*
X58575714Y-90844342D01*
X58575714Y-90844342D02*
X58575714Y-90606247D01*
X58575714Y-90606247D02*
X58528095Y-90511009D01*
X58528095Y-90511009D02*
X58480476Y-90463390D01*
X58480476Y-90463390D02*
X58385238Y-90415771D01*
X58385238Y-90415771D02*
X58194762Y-90415771D01*
X58194762Y-90415771D02*
X58099524Y-90463390D01*
X58099524Y-90463390D02*
X58051905Y-90511009D01*
X58051905Y-90511009D02*
X58004286Y-90606247D01*
X57623333Y-67384819D02*
X57290000Y-66908628D01*
X57051905Y-67384819D02*
X57051905Y-66384819D01*
X57051905Y-66384819D02*
X57432857Y-66384819D01*
X57432857Y-66384819D02*
X57528095Y-66432438D01*
X57528095Y-66432438D02*
X57575714Y-66480057D01*
X57575714Y-66480057D02*
X57623333Y-66575295D01*
X57623333Y-66575295D02*
X57623333Y-66718152D01*
X57623333Y-66718152D02*
X57575714Y-66813390D01*
X57575714Y-66813390D02*
X57528095Y-66861009D01*
X57528095Y-66861009D02*
X57432857Y-66908628D01*
X57432857Y-66908628D02*
X57051905Y-66908628D01*
X58528095Y-66384819D02*
X58051905Y-66384819D01*
X58051905Y-66384819D02*
X58004286Y-66861009D01*
X58004286Y-66861009D02*
X58051905Y-66813390D01*
X58051905Y-66813390D02*
X58147143Y-66765771D01*
X58147143Y-66765771D02*
X58385238Y-66765771D01*
X58385238Y-66765771D02*
X58480476Y-66813390D01*
X58480476Y-66813390D02*
X58528095Y-66861009D01*
X58528095Y-66861009D02*
X58575714Y-66956247D01*
X58575714Y-66956247D02*
X58575714Y-67194342D01*
X58575714Y-67194342D02*
X58528095Y-67289580D01*
X58528095Y-67289580D02*
X58480476Y-67337200D01*
X58480476Y-67337200D02*
X58385238Y-67384819D01*
X58385238Y-67384819D02*
X58147143Y-67384819D01*
X58147143Y-67384819D02*
X58051905Y-67337200D01*
X58051905Y-67337200D02*
X58004286Y-67289580D01*
X77023333Y-71434819D02*
X76690000Y-70958628D01*
X76451905Y-71434819D02*
X76451905Y-70434819D01*
X76451905Y-70434819D02*
X76832857Y-70434819D01*
X76832857Y-70434819D02*
X76928095Y-70482438D01*
X76928095Y-70482438D02*
X76975714Y-70530057D01*
X76975714Y-70530057D02*
X77023333Y-70625295D01*
X77023333Y-70625295D02*
X77023333Y-70768152D01*
X77023333Y-70768152D02*
X76975714Y-70863390D01*
X76975714Y-70863390D02*
X76928095Y-70911009D01*
X76928095Y-70911009D02*
X76832857Y-70958628D01*
X76832857Y-70958628D02*
X76451905Y-70958628D01*
X77880476Y-70768152D02*
X77880476Y-71434819D01*
X77642381Y-70387200D02*
X77404286Y-71101485D01*
X77404286Y-71101485D02*
X78023333Y-71101485D01*
X77023333Y-67384819D02*
X76690000Y-66908628D01*
X76451905Y-67384819D02*
X76451905Y-66384819D01*
X76451905Y-66384819D02*
X76832857Y-66384819D01*
X76832857Y-66384819D02*
X76928095Y-66432438D01*
X76928095Y-66432438D02*
X76975714Y-66480057D01*
X76975714Y-66480057D02*
X77023333Y-66575295D01*
X77023333Y-66575295D02*
X77023333Y-66718152D01*
X77023333Y-66718152D02*
X76975714Y-66813390D01*
X76975714Y-66813390D02*
X76928095Y-66861009D01*
X76928095Y-66861009D02*
X76832857Y-66908628D01*
X76832857Y-66908628D02*
X76451905Y-66908628D01*
X77356667Y-66384819D02*
X77975714Y-66384819D01*
X77975714Y-66384819D02*
X77642381Y-66765771D01*
X77642381Y-66765771D02*
X77785238Y-66765771D01*
X77785238Y-66765771D02*
X77880476Y-66813390D01*
X77880476Y-66813390D02*
X77928095Y-66861009D01*
X77928095Y-66861009D02*
X77975714Y-66956247D01*
X77975714Y-66956247D02*
X77975714Y-67194342D01*
X77975714Y-67194342D02*
X77928095Y-67289580D01*
X77928095Y-67289580D02*
X77880476Y-67337200D01*
X77880476Y-67337200D02*
X77785238Y-67384819D01*
X77785238Y-67384819D02*
X77499524Y-67384819D01*
X77499524Y-67384819D02*
X77404286Y-67337200D01*
X77404286Y-67337200D02*
X77356667Y-67289580D01*
X77023333Y-95084819D02*
X76690000Y-94608628D01*
X76451905Y-95084819D02*
X76451905Y-94084819D01*
X76451905Y-94084819D02*
X76832857Y-94084819D01*
X76832857Y-94084819D02*
X76928095Y-94132438D01*
X76928095Y-94132438D02*
X76975714Y-94180057D01*
X76975714Y-94180057D02*
X77023333Y-94275295D01*
X77023333Y-94275295D02*
X77023333Y-94418152D01*
X77023333Y-94418152D02*
X76975714Y-94513390D01*
X76975714Y-94513390D02*
X76928095Y-94561009D01*
X76928095Y-94561009D02*
X76832857Y-94608628D01*
X76832857Y-94608628D02*
X76451905Y-94608628D01*
X77404286Y-94180057D02*
X77451905Y-94132438D01*
X77451905Y-94132438D02*
X77547143Y-94084819D01*
X77547143Y-94084819D02*
X77785238Y-94084819D01*
X77785238Y-94084819D02*
X77880476Y-94132438D01*
X77880476Y-94132438D02*
X77928095Y-94180057D01*
X77928095Y-94180057D02*
X77975714Y-94275295D01*
X77975714Y-94275295D02*
X77975714Y-94370533D01*
X77975714Y-94370533D02*
X77928095Y-94513390D01*
X77928095Y-94513390D02*
X77356667Y-95084819D01*
X77356667Y-95084819D02*
X77975714Y-95084819D01*
X77023333Y-91034819D02*
X76690000Y-90558628D01*
X76451905Y-91034819D02*
X76451905Y-90034819D01*
X76451905Y-90034819D02*
X76832857Y-90034819D01*
X76832857Y-90034819D02*
X76928095Y-90082438D01*
X76928095Y-90082438D02*
X76975714Y-90130057D01*
X76975714Y-90130057D02*
X77023333Y-90225295D01*
X77023333Y-90225295D02*
X77023333Y-90368152D01*
X77023333Y-90368152D02*
X76975714Y-90463390D01*
X76975714Y-90463390D02*
X76928095Y-90511009D01*
X76928095Y-90511009D02*
X76832857Y-90558628D01*
X76832857Y-90558628D02*
X76451905Y-90558628D01*
X77975714Y-91034819D02*
X77404286Y-91034819D01*
X77690000Y-91034819D02*
X77690000Y-90034819D01*
X77690000Y-90034819D02*
X77594762Y-90177676D01*
X77594762Y-90177676D02*
X77499524Y-90272914D01*
X77499524Y-90272914D02*
X77404286Y-90320533D01*
X85773133Y-90809580D02*
X85725514Y-90857200D01*
X85725514Y-90857200D02*
X85582657Y-90904819D01*
X85582657Y-90904819D02*
X85487419Y-90904819D01*
X85487419Y-90904819D02*
X85344562Y-90857200D01*
X85344562Y-90857200D02*
X85249324Y-90761961D01*
X85249324Y-90761961D02*
X85201705Y-90666723D01*
X85201705Y-90666723D02*
X85154086Y-90476247D01*
X85154086Y-90476247D02*
X85154086Y-90333390D01*
X85154086Y-90333390D02*
X85201705Y-90142914D01*
X85201705Y-90142914D02*
X85249324Y-90047676D01*
X85249324Y-90047676D02*
X85344562Y-89952438D01*
X85344562Y-89952438D02*
X85487419Y-89904819D01*
X85487419Y-89904819D02*
X85582657Y-89904819D01*
X85582657Y-89904819D02*
X85725514Y-89952438D01*
X85725514Y-89952438D02*
X85773133Y-90000057D01*
X86677895Y-89904819D02*
X86201705Y-89904819D01*
X86201705Y-89904819D02*
X86154086Y-90381009D01*
X86154086Y-90381009D02*
X86201705Y-90333390D01*
X86201705Y-90333390D02*
X86296943Y-90285771D01*
X86296943Y-90285771D02*
X86535038Y-90285771D01*
X86535038Y-90285771D02*
X86630276Y-90333390D01*
X86630276Y-90333390D02*
X86677895Y-90381009D01*
X86677895Y-90381009D02*
X86725514Y-90476247D01*
X86725514Y-90476247D02*
X86725514Y-90714342D01*
X86725514Y-90714342D02*
X86677895Y-90809580D01*
X86677895Y-90809580D02*
X86630276Y-90857200D01*
X86630276Y-90857200D02*
X86535038Y-90904819D01*
X86535038Y-90904819D02*
X86296943Y-90904819D01*
X86296943Y-90904819D02*
X86201705Y-90857200D01*
X86201705Y-90857200D02*
X86154086Y-90809580D01*
X66373133Y-67159580D02*
X66325514Y-67207200D01*
X66325514Y-67207200D02*
X66182657Y-67254819D01*
X66182657Y-67254819D02*
X66087419Y-67254819D01*
X66087419Y-67254819D02*
X65944562Y-67207200D01*
X65944562Y-67207200D02*
X65849324Y-67111961D01*
X65849324Y-67111961D02*
X65801705Y-67016723D01*
X65801705Y-67016723D02*
X65754086Y-66826247D01*
X65754086Y-66826247D02*
X65754086Y-66683390D01*
X65754086Y-66683390D02*
X65801705Y-66492914D01*
X65801705Y-66492914D02*
X65849324Y-66397676D01*
X65849324Y-66397676D02*
X65944562Y-66302438D01*
X65944562Y-66302438D02*
X66087419Y-66254819D01*
X66087419Y-66254819D02*
X66182657Y-66254819D01*
X66182657Y-66254819D02*
X66325514Y-66302438D01*
X66325514Y-66302438D02*
X66373133Y-66350057D01*
X66706467Y-66254819D02*
X67325514Y-66254819D01*
X67325514Y-66254819D02*
X66992181Y-66635771D01*
X66992181Y-66635771D02*
X67135038Y-66635771D01*
X67135038Y-66635771D02*
X67230276Y-66683390D01*
X67230276Y-66683390D02*
X67277895Y-66731009D01*
X67277895Y-66731009D02*
X67325514Y-66826247D01*
X67325514Y-66826247D02*
X67325514Y-67064342D01*
X67325514Y-67064342D02*
X67277895Y-67159580D01*
X67277895Y-67159580D02*
X67230276Y-67207200D01*
X67230276Y-67207200D02*
X67135038Y-67254819D01*
X67135038Y-67254819D02*
X66849324Y-67254819D01*
X66849324Y-67254819D02*
X66754086Y-67207200D01*
X66754086Y-67207200D02*
X66706467Y-67159580D01*
X66373133Y-90809580D02*
X66325514Y-90857200D01*
X66325514Y-90857200D02*
X66182657Y-90904819D01*
X66182657Y-90904819D02*
X66087419Y-90904819D01*
X66087419Y-90904819D02*
X65944562Y-90857200D01*
X65944562Y-90857200D02*
X65849324Y-90761961D01*
X65849324Y-90761961D02*
X65801705Y-90666723D01*
X65801705Y-90666723D02*
X65754086Y-90476247D01*
X65754086Y-90476247D02*
X65754086Y-90333390D01*
X65754086Y-90333390D02*
X65801705Y-90142914D01*
X65801705Y-90142914D02*
X65849324Y-90047676D01*
X65849324Y-90047676D02*
X65944562Y-89952438D01*
X65944562Y-89952438D02*
X66087419Y-89904819D01*
X66087419Y-89904819D02*
X66182657Y-89904819D01*
X66182657Y-89904819D02*
X66325514Y-89952438D01*
X66325514Y-89952438D02*
X66373133Y-90000057D01*
X66754086Y-90000057D02*
X66801705Y-89952438D01*
X66801705Y-89952438D02*
X66896943Y-89904819D01*
X66896943Y-89904819D02*
X67135038Y-89904819D01*
X67135038Y-89904819D02*
X67230276Y-89952438D01*
X67230276Y-89952438D02*
X67277895Y-90000057D01*
X67277895Y-90000057D02*
X67325514Y-90095295D01*
X67325514Y-90095295D02*
X67325514Y-90190533D01*
X67325514Y-90190533D02*
X67277895Y-90333390D01*
X67277895Y-90333390D02*
X66706467Y-90904819D01*
X66706467Y-90904819D02*
X67325514Y-90904819D01*
X85773133Y-67159580D02*
X85725514Y-67207200D01*
X85725514Y-67207200D02*
X85582657Y-67254819D01*
X85582657Y-67254819D02*
X85487419Y-67254819D01*
X85487419Y-67254819D02*
X85344562Y-67207200D01*
X85344562Y-67207200D02*
X85249324Y-67111961D01*
X85249324Y-67111961D02*
X85201705Y-67016723D01*
X85201705Y-67016723D02*
X85154086Y-66826247D01*
X85154086Y-66826247D02*
X85154086Y-66683390D01*
X85154086Y-66683390D02*
X85201705Y-66492914D01*
X85201705Y-66492914D02*
X85249324Y-66397676D01*
X85249324Y-66397676D02*
X85344562Y-66302438D01*
X85344562Y-66302438D02*
X85487419Y-66254819D01*
X85487419Y-66254819D02*
X85582657Y-66254819D01*
X85582657Y-66254819D02*
X85725514Y-66302438D01*
X85725514Y-66302438D02*
X85773133Y-66350057D01*
X86725514Y-67254819D02*
X86154086Y-67254819D01*
X86439800Y-67254819D02*
X86439800Y-66254819D01*
X86439800Y-66254819D02*
X86344562Y-66397676D01*
X86344562Y-66397676D02*
X86249324Y-66492914D01*
X86249324Y-66492914D02*
X86154086Y-66540533D01*
X100666666Y-76944819D02*
X100666666Y-77659104D01*
X100666666Y-77659104D02*
X100619047Y-77801961D01*
X100619047Y-77801961D02*
X100523809Y-77897200D01*
X100523809Y-77897200D02*
X100380952Y-77944819D01*
X100380952Y-77944819D02*
X100285714Y-77944819D01*
X101095238Y-77040057D02*
X101142857Y-76992438D01*
X101142857Y-76992438D02*
X101238095Y-76944819D01*
X101238095Y-76944819D02*
X101476190Y-76944819D01*
X101476190Y-76944819D02*
X101571428Y-76992438D01*
X101571428Y-76992438D02*
X101619047Y-77040057D01*
X101619047Y-77040057D02*
X101666666Y-77135295D01*
X101666666Y-77135295D02*
X101666666Y-77230533D01*
X101666666Y-77230533D02*
X101619047Y-77373390D01*
X101619047Y-77373390D02*
X101047619Y-77944819D01*
X101047619Y-77944819D02*
X101666666Y-77944819D01*
X93666666Y-77324819D02*
X93666666Y-78039104D01*
X93666666Y-78039104D02*
X93619047Y-78181961D01*
X93619047Y-78181961D02*
X93523809Y-78277200D01*
X93523809Y-78277200D02*
X93380952Y-78324819D01*
X93380952Y-78324819D02*
X93285714Y-78324819D01*
X94047619Y-77324819D02*
X94666666Y-77324819D01*
X94666666Y-77324819D02*
X94333333Y-77705771D01*
X94333333Y-77705771D02*
X94476190Y-77705771D01*
X94476190Y-77705771D02*
X94571428Y-77753390D01*
X94571428Y-77753390D02*
X94619047Y-77801009D01*
X94619047Y-77801009D02*
X94666666Y-77896247D01*
X94666666Y-77896247D02*
X94666666Y-78134342D01*
X94666666Y-78134342D02*
X94619047Y-78229580D01*
X94619047Y-78229580D02*
X94571428Y-78277200D01*
X94571428Y-78277200D02*
X94476190Y-78324819D01*
X94476190Y-78324819D02*
X94190476Y-78324819D01*
X94190476Y-78324819D02*
X94095238Y-78277200D01*
X94095238Y-78277200D02*
X94047619Y-78229580D01*
X97816666Y-51204819D02*
X97816666Y-51919104D01*
X97816666Y-51919104D02*
X97769047Y-52061961D01*
X97769047Y-52061961D02*
X97673809Y-52157200D01*
X97673809Y-52157200D02*
X97530952Y-52204819D01*
X97530952Y-52204819D02*
X97435714Y-52204819D01*
X98816666Y-52204819D02*
X98245238Y-52204819D01*
X98530952Y-52204819D02*
X98530952Y-51204819D01*
X98530952Y-51204819D02*
X98435714Y-51347676D01*
X98435714Y-51347676D02*
X98340476Y-51442914D01*
X98340476Y-51442914D02*
X98245238Y-51490533D01*
X96368095Y-78254819D02*
X96368095Y-79064342D01*
X96368095Y-79064342D02*
X96415714Y-79159580D01*
X96415714Y-79159580D02*
X96463333Y-79207200D01*
X96463333Y-79207200D02*
X96558571Y-79254819D01*
X96558571Y-79254819D02*
X96749047Y-79254819D01*
X96749047Y-79254819D02*
X96844285Y-79207200D01*
X96844285Y-79207200D02*
X96891904Y-79159580D01*
X96891904Y-79159580D02*
X96939523Y-79064342D01*
X96939523Y-79064342D02*
X96939523Y-78254819D01*
X97368095Y-78350057D02*
X97415714Y-78302438D01*
X97415714Y-78302438D02*
X97510952Y-78254819D01*
X97510952Y-78254819D02*
X97749047Y-78254819D01*
X97749047Y-78254819D02*
X97844285Y-78302438D01*
X97844285Y-78302438D02*
X97891904Y-78350057D01*
X97891904Y-78350057D02*
X97939523Y-78445295D01*
X97939523Y-78445295D02*
X97939523Y-78540533D01*
X97939523Y-78540533D02*
X97891904Y-78683390D01*
X97891904Y-78683390D02*
X97320476Y-79254819D01*
X97320476Y-79254819D02*
X97939523Y-79254819D01*
D11*
%TO.C,SW4*%
X67100000Y-78000000D02*
X67100000Y-80720000D01*
X54800000Y-80720000D02*
X54800000Y-78000000D01*
X54800000Y-85720000D02*
X54800000Y-82580000D01*
X54800000Y-78000000D02*
X67100000Y-78000000D01*
X67100000Y-87580000D02*
X67100000Y-90300000D01*
X67100000Y-82580000D02*
X67100000Y-85720000D01*
X67100000Y-90300000D02*
X54800000Y-90300000D01*
X54800000Y-90300000D02*
X54800000Y-87580000D01*
X65629050Y-84190000D02*
G75*
G03*
X65629050Y-84190000I-4579050J0D01*
G01*
%TO.C,SW3*%
X67100000Y-54350000D02*
X67100000Y-57070000D01*
X54800000Y-57070000D02*
X54800000Y-54350000D01*
X54800000Y-62070000D02*
X54800000Y-58930000D01*
X54800000Y-54350000D02*
X67100000Y-54350000D01*
X67100000Y-63930000D02*
X67100000Y-66650000D01*
X67100000Y-58930000D02*
X67100000Y-62070000D01*
X67100000Y-66650000D02*
X54800000Y-66650000D01*
X54800000Y-66650000D02*
X54800000Y-63930000D01*
X65629050Y-60540000D02*
G75*
G03*
X65629050Y-60540000I-4579050J0D01*
G01*
%TO.C,SW2*%
X86500000Y-54350000D02*
X86500000Y-57070000D01*
X74200000Y-57070000D02*
X74200000Y-54350000D01*
X74200000Y-62070000D02*
X74200000Y-58930000D01*
X74200000Y-54350000D02*
X86500000Y-54350000D01*
X86500000Y-63930000D02*
X86500000Y-66650000D01*
X86500000Y-58930000D02*
X86500000Y-62070000D01*
X86500000Y-66650000D02*
X74200000Y-66650000D01*
X74200000Y-66650000D02*
X74200000Y-63930000D01*
X85029050Y-60540000D02*
G75*
G03*
X85029050Y-60540000I-4579050J0D01*
G01*
%TO.C,SW1*%
X86500000Y-78000000D02*
X86500000Y-80720000D01*
X74200000Y-80720000D02*
X74200000Y-78000000D01*
X74200000Y-85720000D02*
X74200000Y-82580000D01*
X74200000Y-78000000D02*
X86500000Y-78000000D01*
X86500000Y-87580000D02*
X86500000Y-90300000D01*
X86500000Y-82580000D02*
X86500000Y-85720000D01*
X86500000Y-90300000D02*
X74200000Y-90300000D01*
X74200000Y-90300000D02*
X74200000Y-87580000D01*
X85029050Y-84190000D02*
G75*
G03*
X85029050Y-84190000I-4579050J0D01*
G01*
%TO.C,R8*%
X61060000Y-74720000D02*
X61060000Y-74390000D01*
X54520000Y-71980000D02*
X61060000Y-71980000D01*
X54520000Y-74720000D02*
X61060000Y-74720000D01*
X54520000Y-74390000D02*
X54520000Y-74720000D01*
X54520000Y-72310000D02*
X54520000Y-71980000D01*
X61060000Y-71980000D02*
X61060000Y-72310000D01*
%TO.C,R7*%
X61060000Y-98370000D02*
X61060000Y-98040000D01*
X54520000Y-95630000D02*
X61060000Y-95630000D01*
X54520000Y-98370000D02*
X61060000Y-98370000D01*
X54520000Y-98040000D02*
X54520000Y-98370000D01*
X54520000Y-95960000D02*
X54520000Y-95630000D01*
X61060000Y-95630000D02*
X61060000Y-95960000D01*
%TO.C,R6*%
X61060000Y-94320000D02*
X61060000Y-93990000D01*
X54520000Y-91580000D02*
X61060000Y-91580000D01*
X54520000Y-94320000D02*
X61060000Y-94320000D01*
X54520000Y-93990000D02*
X54520000Y-94320000D01*
X54520000Y-91910000D02*
X54520000Y-91580000D01*
X61060000Y-91580000D02*
X61060000Y-91910000D01*
%TO.C,R5*%
X61060000Y-70670000D02*
X61060000Y-70340000D01*
X54520000Y-67930000D02*
X61060000Y-67930000D01*
X54520000Y-70670000D02*
X61060000Y-70670000D01*
X54520000Y-70340000D02*
X54520000Y-70670000D01*
X54520000Y-68260000D02*
X54520000Y-67930000D01*
X61060000Y-67930000D02*
X61060000Y-68260000D01*
%TO.C,R4*%
X80460000Y-74720000D02*
X80460000Y-74390000D01*
X73920000Y-71980000D02*
X80460000Y-71980000D01*
X73920000Y-74720000D02*
X80460000Y-74720000D01*
X73920000Y-74390000D02*
X73920000Y-74720000D01*
X73920000Y-72310000D02*
X73920000Y-71980000D01*
X80460000Y-71980000D02*
X80460000Y-72310000D01*
%TO.C,R3*%
X80460000Y-70670000D02*
X80460000Y-70340000D01*
X73920000Y-67930000D02*
X80460000Y-67930000D01*
X73920000Y-70670000D02*
X80460000Y-70670000D01*
X73920000Y-70340000D02*
X73920000Y-70670000D01*
X73920000Y-68260000D02*
X73920000Y-67930000D01*
X80460000Y-67930000D02*
X80460000Y-68260000D01*
%TO.C,R2*%
X80460000Y-98370000D02*
X80460000Y-98040000D01*
X73920000Y-95630000D02*
X80460000Y-95630000D01*
X73920000Y-98370000D02*
X80460000Y-98370000D01*
X73920000Y-98040000D02*
X73920000Y-98370000D01*
X73920000Y-95960000D02*
X73920000Y-95630000D01*
X80460000Y-95630000D02*
X80460000Y-95960000D01*
%TO.C,R1*%
X80460000Y-94320000D02*
X80460000Y-93990000D01*
X73920000Y-91580000D02*
X80460000Y-91580000D01*
X73920000Y-94320000D02*
X80460000Y-94320000D01*
X73920000Y-93990000D02*
X73920000Y-94320000D01*
X73920000Y-91910000D02*
X73920000Y-91580000D01*
X80460000Y-91580000D02*
X80460000Y-91910000D01*
%TO.C,C5*%
X83385025Y-92475000D02*
X83385025Y-92975000D01*
X83135025Y-92725000D02*
X83635025Y-92725000D01*
X88559800Y-94200000D02*
G75*
G03*
X88559800Y-94200000I-2620000J0D01*
G01*
%TO.C,C3*%
X63985025Y-68825000D02*
X63985025Y-69325000D01*
X63735025Y-69075000D02*
X64235025Y-69075000D01*
X69159800Y-70550000D02*
G75*
G03*
X69159800Y-70550000I-2620000J0D01*
G01*
%TO.C,C2*%
X63985025Y-92475000D02*
X63985025Y-92975000D01*
X63735025Y-92725000D02*
X64235025Y-92725000D01*
X69159800Y-94200000D02*
G75*
G03*
X69159800Y-94200000I-2620000J0D01*
G01*
%TO.C,C1*%
X83385025Y-68825000D02*
X83385025Y-69325000D01*
X83135025Y-69075000D02*
X83635025Y-69075000D01*
X88559800Y-70550000D02*
G75*
G03*
X88559800Y-70550000I-2620000J0D01*
G01*
%TO.C,J2*%
X102330000Y-76490000D02*
X101000000Y-76490000D01*
X102330000Y-75160000D02*
X102330000Y-76490000D01*
X102330000Y-73890000D02*
X102330000Y-61130000D01*
X102330000Y-73890000D02*
X99670000Y-73890000D01*
X102330000Y-61130000D02*
X99670000Y-61130000D01*
X99670000Y-73890000D02*
X99670000Y-61130000D01*
%TO.C,J3*%
X95330000Y-76870000D02*
X94000000Y-76870000D01*
X95330000Y-75540000D02*
X95330000Y-76870000D01*
X95330000Y-74270000D02*
X95330000Y-61510000D01*
X95330000Y-74270000D02*
X92670000Y-74270000D01*
X95330000Y-61510000D02*
X92670000Y-61510000D01*
X92670000Y-74270000D02*
X92670000Y-61510000D01*
D12*
%TO.C,J1*%
X92900000Y-52900000D02*
X92900000Y-53400000D01*
X92900000Y-52900000D02*
X93400000Y-52900000D01*
X92900000Y-57100000D02*
X92900000Y-56600000D01*
X92900000Y-57100000D02*
X93400000Y-57100000D01*
X103100000Y-52900000D02*
X102600000Y-52900000D01*
X103100000Y-52900000D02*
X103100000Y-53400000D01*
X103100000Y-57100000D02*
X102600000Y-57100000D01*
X103100000Y-57100000D02*
X103100000Y-56600000D01*
%TO.C,U2*%
X93110000Y-80800000D02*
X92860000Y-80800000D01*
X93490000Y-80800000D02*
X93120000Y-80800000D01*
X93590000Y-99000000D02*
X93590000Y-99400000D01*
X93590000Y-99400000D02*
X93990000Y-99400000D01*
X94490000Y-79800000D02*
X93490000Y-80800000D01*
X94790000Y-79800000D02*
X94490000Y-79800000D01*
X99890000Y-99400000D02*
X100390000Y-99400000D01*
X100390000Y-79900000D02*
X99990000Y-79900000D01*
X100390000Y-80300000D02*
X100390000Y-79900000D01*
X100390000Y-99400000D02*
X100390000Y-99000000D01*
%TD*%
M02*
